<?xml version="1.0" standalone="no"?><!DOCTYPE svg PUBLIC "-//W3C//DTD SVG 1.1//EN" "http://www.w3.org/Graphics/SVG/1.1/DTD/svg11.dtd"><svg t="1721274373046" class="icon" viewBox="0 0 1024 1024" version="1.1" xmlns="http://www.w3.org/2000/svg" p-id="5726" xmlns:xlink="http://www.w3.org/1999/xlink" width="16" height="16"><path d="M988.672 78.848l-375.808 375.808c-6.144 6.144-15.872 6.144-21.504 0l-21.504-21.504c-6.144-6.144-6.144-15.872 0-21.504L945.664 35.84c6.144-6.144 15.872-6.144 21.504 0l21.504 21.504c6.144 5.632 6.144 15.36 0 21.504z" fill="#505050" p-id="5727"></path><path d="M975.36 522.24h-30.72c-8.704 0-15.36 6.656-15.36 15.36v258.56c0 33.792-27.648 61.44-61.44 61.44h-716.8c-33.792 0-61.44-27.648-61.44-61.44V224.256c0-33.792 27.648-61.44 61.44-61.44h365.568c8.704 0 15.36-6.656 15.36-15.36v-30.72c0-8.704-6.656-15.36-15.36-15.36H151.04c-67.584 0-122.88 55.296-122.88 122.88v571.904c0 67.584 55.296 122.88 122.88 122.88h716.8c67.584 0 122.88-55.296 122.88-122.88V537.6c0-8.704-6.656-15.36-15.36-15.36z" fill="#505050" p-id="5728"></path></svg>