<?xml version="1.0" standalone="no"?><!DOCTYPE svg PUBLIC "-//W3C//DTD SVG 1.1//EN" "http://www.w3.org/Graphics/SVG/1.1/DTD/svg11.dtd"><svg t="1719974459227" class="icon" viewBox="0 0 1024 1024" version="1.1" xmlns="http://www.w3.org/2000/svg" p-id="4589" width="14" height="14" xmlns:xlink="http://www.w3.org/1999/xlink"><path d="M947.2 170.666667h-217.6V128c0-59.733333-51.2-110.933333-110.933333-110.933333H426.666667C366.933333 17.066667 315.733333 68.266667 315.733333 128v42.666667H76.8c-21.333333 0-34.133333 12.8-34.133333 25.6s12.8 25.6 34.133333 25.6h874.666667c17.066667 0 34.133333-12.8 34.133333-25.6-4.266667-12.8-17.066667-25.6-38.4-25.6zM366.933333 128c0-34.133333 25.6-59.733333 59.733334-59.733333h192c34.133333 0 59.733333 25.6 59.733333 59.733333v42.666667H366.933333V128zM789.333333 904.533333c0 29.866667-29.866667 55.466667-59.733333 55.466667H294.4c-29.866667 0-55.466667-25.6-59.733333-55.466667L196.266667 341.333333H145.066667l38.4 567.466667c4.266667 59.733333 51.2 102.4 110.933333 102.4h439.466667c59.733333 0 106.666667-46.933333 110.933333-102.4L878.933333 341.333333h-51.2l-38.4 563.2z" fill="#000000" p-id="4590"></path><path d="M435.2 802.133333v-349.866666c0-12.8-12.8-25.6-25.6-25.6s-25.6 12.8-25.6 25.6v349.866666c0 12.8 12.8 25.6 25.6 25.6s25.6-12.8 25.6-25.6zM640 802.133333v-349.866666c0-12.8-12.8-25.6-25.6-25.6s-25.6 12.8-25.6 25.6v349.866666c0 12.8 12.8 25.6 25.6 25.6s25.6-12.8 25.6-25.6z" fill="#000000" p-id="4591"></path></svg>