<svg width="16" height="16" viewBox="0 0 16 16" fill="currentColor" xmlns="http://www.w3.org/2000/svg">
    <g clip-path="url(#clip0_4_6256)">
        <path d="M14.264 3.7307C14.144 3.7307 14.0267 3.67736 13.9467 3.57603L12.2427 1.37336H3.75468L2.04535 3.57603C1.90935 3.74936 1.65868 3.78136 1.48535 3.64803C1.31201 3.51203 1.28001 3.26136 1.41335 3.08536L3.24268 0.728031C3.31735 0.629364 3.43468 0.573364 3.56001 0.573364H12.44C12.5627 0.573364 12.68 0.629364 12.7573 0.728031L14.5813 3.08536C14.7173 3.26136 14.6853 3.51203 14.5093 3.64536C14.4347 3.70403 14.3493 3.7307 14.264 3.7307Z"/>
        <path d="M13.6296 15.4667H2.37096C1.9822 15.466 1.60955 15.3113 1.33465 15.0364C1.05975 14.7615 0.905002 14.3888 0.904297 14V4.23205C0.904297 3.42405 1.56296 2.76538 2.37096 2.76538H13.627C14.435 2.76538 15.0936 3.42405 15.0936 4.23205V14C15.0963 14.808 14.4376 15.4667 13.6296 15.4667ZM2.37096 3.56538C2.19415 3.56538 2.02458 3.63562 1.89956 3.76064C1.77453 3.88567 1.7043 4.05524 1.7043 4.23205V14C1.7043 14.1769 1.77453 14.3464 1.89956 14.4715C2.02458 14.5965 2.19415 14.6667 2.37096 14.6667H13.627C13.8038 14.6667 13.9733 14.5965 14.0984 14.4715C14.2234 14.3464 14.2936 14.1769 14.2936 14V4.23205C14.2936 4.05524 14.2234 3.88567 14.0984 3.76064C13.9733 3.63562 13.8038 3.56538 13.627 3.56538H2.37096Z"/>
        <path d="M7.99971 12.4907C7.89305 12.4907 7.79171 12.448 7.71705 12.3733L4.74105 9.39732C4.58371 9.23999 4.58371 8.98666 4.74105 8.83199C4.89838 8.67732 5.15171 8.67466 5.30638 8.83199L7.99971 11.5253L10.693 8.83199C10.8504 8.67466 11.1037 8.67466 11.2584 8.83199C11.413 8.98932 11.4157 9.24266 11.2584 9.39732L8.28238 12.3733C8.20771 12.448 8.10638 12.4907 7.99971 12.4907Z"/>
        <path d="M7.99766 12.4907C7.77632 12.4907 7.59766 12.312 7.59766 12.0907V6.14133C7.59766 5.92 7.77632 5.74133 7.99766 5.74133C8.21899 5.74133 8.39766 5.92 8.39766 6.14133V12.0933C8.39766 12.312 8.21899 12.4907 7.99766 12.4907Z"/>
    </g>
    <defs>
        <clipPath id="clip0_4_6256">
            <rect width="16" height="16" fill="white"/>
        </clipPath>
    </defs>
</svg>
