<?xml version="1.0" encoding="UTF-8"?>
<svg width="145px" height="146px" viewBox="0 0 145 146" version="1.1" xmlns="http://www.w3.org/2000/svg" xmlns:xlink="http://www.w3.org/1999/xlink">
    <!-- Generator: Sketch 60.1 (88133) - https://sketch.com -->
    <title>编组 8</title>
    <desc>Created with Sketch.</desc>
    <defs>
        <linearGradient x1="40.6195182%" y1="7.26650317%" x2="90.4918461%" y2="62.8285552%" id="linearGradient-1">
            <stop stop-color="#DBE6FD" stop-opacity="0.6" offset="0%"></stop>
            <stop stop-color="#B4C9FB" stop-opacity="0" offset="100%"></stop>
        </linearGradient>
    </defs>
    <g id="页面-1" stroke="none" stroke-width="1" fill="none" fill-rule="evenodd">
        <g id="证书备份-4" transform="translate(-3671.000000, -986.000000)">
            <g id="编组-22" transform="translate(3453.000000, 986.000000)">
                <g id="编组-21">
                    <g id="编组-8" transform="translate(179.000000, -111.472050)">
                        <path d="M89.5,27 C124.570082,27 153,55.253335 153,90.1055901 C153,124.957845 124.570082,153.21118 89.5,153.21118 C54.4299184,153.21118 26,124.957845 26,90.1055901 C26,55.253335 54.4299184,27 89.5,27 Z M89.5,40.9130435 C62.1619049,40.9130435 40,62.9372968 40,90.1055901 C40,117.273883 62.1619049,139.298137 89.5,139.298137 C116.838095,139.298137 139,117.273883 139,90.1055901 C139,62.9372968 116.838095,40.9130435 89.5,40.9130435 Z" id="形状结合备份-8" fill="url(#linearGradient-1)" transform="translate(89.500000, 90.105590) rotate(-222.000000) translate(-89.500000, -90.105590) "></path>
                        <ellipse id="椭圆形备份-4" stroke="#BFD1FD" cx="184" cy="196.13231" rx="6" ry="5.96273292"></ellipse>
                        <g id="编组-15" transform="translate(96.000000, 195.944099)">
                            <circle id="椭圆形" fill="#E9EAEB" fill-rule="nonzero" transform="translate(34.441111, 29.868147) rotate(-45.000000) translate(-34.441111, -29.868147) " cx="34.4411111" cy="29.8681467" r="19.9564957"></circle>
                            <g id="编组" transform="translate(43.000000, 0.000000)" stroke="#82A7FC" stroke-width="2">
                                <path d="M9,11.1304348 C14.0625,16.0278261 17.325,22.8173913 17.325,30.386087 C17.325,41.5165217 10.4625,51.0886957 0.5625,55.0956522" id="路径"></path>
                                <path d="M14.625,44.4104348 C18.9,45.0782609 23.7375,44.0765217 25.0875,35.84 C19.8,35.0608696 15.525,38.1773913 14.625,44.4104348 Z" id="路径"></path>
                                <path d="M6.075,52.8695652 C9.45,55.4295652 14.2875,56.8765217 19.35,50.1982609 C15.1875,47.0817391 9.9,47.8608696 6.075,52.8695652 Z" id="路径"></path>
                                <path d="M17.8875,32.0556522 C22.1625,31.6104348 26.6625,29.3843478 25.7625,21.1478261 C20.475,21.7043478 17.2125,25.8226087 17.8875,32.0556522 Z" id="路径"></path>
                                <path d="M15.975,21.0365217 C19.575,18.8104348 22.725,14.9147826 18.3375,7.79130435 C13.8375,10.6852174 12.6,15.693913 15.975,21.0365217 Z" id="路径"></path>
                                <path d="M9.9,11.6869565 C10.9125,7.56869565 10.4625,2.67130435 2.3625,0.556521739 C1.0125,5.67652174 3.825,10.1286957 9.9,11.6869565 Z" id="路径"></path>
                            </g>
                            <g id="编组" stroke="#82A7FC" stroke-width="2">
                                <path d="M17.5217391,11.1304348 C12.4347826,16.0278261 9.15652174,22.8173913 9.15652174,30.386087 C9.15652174,41.5165217 16.0521739,51.0886957 26,55.0956522" id="路径"></path>
                                <path d="M11.8695652,44.4104348 C7.57391304,45.0782609 2.71304348,44.0765217 1.35652174,35.84 C6.66956522,35.0608696 10.9652174,38.1773913 11.8695652,44.4104348 Z" id="路径"></path>
                                <path d="M20.4608696,52.8695652 C17.0695652,55.4295652 12.2086957,56.8765217 7.12173913,50.1982609 C11.4173913,47.0817391 16.6173913,47.8608696 20.4608696,52.8695652 Z" id="路径"></path>
                                <path d="M8.59130435,32.0556522 C4.29565217,31.6104348 -0.226086957,29.3843478 0.67826087,21.1478261 C5.99130435,21.7043478 9.26956522,25.8226087 8.59130435,32.0556522 Z" id="路径"></path>
                                <path d="M10.626087,21.0365217 C7.00869565,18.8104348 3.84347826,14.9147826 8.25217391,7.79130435 C12.6608696,10.6852174 13.9043478,15.693913 10.626087,21.0365217 Z" id="路径"></path>
                                <path d="M16.6173913,11.6869565 C15.6,7.56869565 16.0521739,2.67130435 24.1913043,0.556521739 C25.5478261,5.67652174 22.7217391,10.1286957 16.6173913,11.6869565 Z" id="路径"></path>
                            </g>
                            <polygon id="路径" fill="#A3D4FF" fill-rule="nonzero" points="31 41.7391304 31 57.6397516 34.5 54.2324756 38 57.6397516 38 41.7391304"></polygon>
                            <rect id="矩形" stroke="#82A7FC" stroke-width="2" fill="#FFFFFF" fill-rule="nonzero" x="18" y="17.8881988" width="33" height="25.8385093"></rect>
                            <polyline id="路径" stroke="#82A7FC" stroke-width="2" points="38 41.7391304 38 57.6397516 34.5 54.2324756 31 57.6397516 31 41.7391304"></polyline>
                            <ellipse id="椭圆形" stroke="#82A7FC" stroke-width="2" fill="#A3D4FF" fill-rule="nonzero" cx="34.5" cy="41.242236" rx="5.5" ry="5.46583851"></ellipse>
                            <line x1="25" y1="25.3416149" x2="43" y2="25.3416149" id="路径" stroke="#82A7FC" stroke-width="2"></line>
                            <line x1="29" y1="30.310559" x2="40" y2="30.310559" id="路径" stroke="#82A7FC" stroke-width="2"></line>
                        </g>
                        <ellipse id="椭圆形" stroke="#BFD1FD" cx="96" cy="179.049689" rx="6" ry="5.96273292"></ellipse>
                        <ellipse id="椭圆形备份-3" stroke="#BFD1FD" cx="168" cy="253.583851" rx="3" ry="2.98136646"></ellipse>
                    </g>
                </g>
            </g>
        </g>
    </g>
</svg>